<svg viewBox="0 0 16 16" xmlns="http://www.w3.org/2000/svg" aria-hidden="true" style="display:block;height:16px;width:16px;fill:currentcolor"><path d="M8.002.25a7.77 7.77 0 0 1 7.748 7.776 7.75 7.75 0 0 1-7.521 7.72l-.246.004a7.75 7.75 0 0 1-7.73-7.513L.25 7.992A7.75 7.75 0 0 1 8.002.25zm1.949 8.5H6.048c.155 2.897 1.176 5.343 1.886 5.493l.068.007c.68-.002 1.72-2.365 1.932-5.23zm4.255 0h-2.752c-.091 1.96-.53 3.783-1.188 5.076a6.257 6.257 0 0 0 3.905-4.829zm-9.661 0h-2.75a6.257 6.257 0 0 0 3.934 5.075c-.615-1.208-1.036-2.875-1.162-4.686l-.022-.39zm1.188-6.576-.115.046a6.257 6.257 0 0 0-3.823 5.03h2.75c.085-1.83.471-3.54 1.059-4.81zm2.262-.424c-.702.002-1.784 2.512-1.947 5.5h3.904C9.796 4.347 8.774 1.907 8.06 1.756l-.065-.007zm2.28.432.023.05c.643 1.288 1.069 3.084 1.157 5.018h2.748a6.275 6.275 0 0 0-3.929-5.068z"/></svg>