<svg class="svg-icon" style="width: 1em; height: 1em;vertical-align: middle;fill: currentColor;overflow: hidden;" viewBox="0 0 1024 1024" version="1.1" xmlns="http://www.w3.org/2000/svg"><path d="M801.727 959.004H223.295c-69.189 0-125.284-56.139-125.284-125.383V253.408c0-69.243 56.095-125.382 125.284-125.382h96.962V94.351c0-17.326 14.009-31.345 31.321-31.345s31.321 14.02 31.321 31.345v33.675h257.223V94.351c0-17.326 14.009-31.345 31.321-31.345s31.321 14.02 31.321 31.345v33.675h98.962c69.188 0 125.284 56.14 125.284 125.382v580.213c0.001 69.244-56.095 125.383-125.283 125.383z m62.642-705.596c0-34.622-28.049-62.691-62.643-62.691h-98.962v32.674c0 17.296-14.009 31.346-31.321 31.346s-31.321-14.05-31.321-31.346v-32.674H382.899v32.674c0 17.296-14.009 31.346-31.321 31.346s-31.321-14.05-31.321-31.346v-32.674h-96.962c-34.594 0-62.643 28.07-62.643 62.691v580.213c0 34.621 28.049 62.691 62.643 62.691h578.432c34.594 0 62.643-28.07 62.643-62.691V253.408zM703.765 733.91H318.258c-17.313 0-31.321-14.02-31.321-31.346s14.009-31.346 31.321-31.346h385.507c17.313 0 31.32 14.02 31.32 31.346s-14.008 31.346-31.32 31.346z m0-158.056H318.258c-17.313 0-31.321-14.02-31.321-31.346s14.009-31.346 31.321-31.346h385.507c17.313 0 31.32 14.02 31.32 31.346s-14.008 31.346-31.32 31.346z m0-161.059H318.258c-17.313 0-31.321-14.02-31.321-31.346s14.009-31.346 31.321-31.346h385.507c17.313 0 31.32 14.02 31.32 31.346s-14.008 31.346-31.32 31.346z"  /></svg>