<svg class="svg-icon" style="width: 1em; height: 1em;vertical-align: middle:stroke:black;fill: white;overflow: hidden;" viewBox="0 0 1024 1024" version="1.1" xmlns="http://www.w3.org/2000/svg"><path d="M512 0.3328C229.8368 0.3328 0.256 229.9136 0.256 512.0768c0 282.1376 229.5808 511.744 511.744 511.744 282.1632 0 511.744-229.6064 511.744-511.744C1023.744 229.888 794.1632 0.3328 512 0.3328zm0 969.2928c-252.3136 0-457.5488-205.2608-457.5488-457.5488C54.4512 259.7632 259.6864 54.528 512 54.528c252.3136 0 457.5488 205.2352 457.5488 457.5488 0 252.288-205.2352 457.5488-457.5488 457.5488zM786.5856 301.3376 424.5504 663.3728l-187.136-187.136a28.0064 28.0064 0 0 0-39.6032 39.6032l206.9504 206.9504c10.9312 10.9312 28.672 10.9312 39.6032 0l381.824-381.8496a28.0064 28.0064 0 1 0-39.6032-39.6032z"  /></svg>