<svg class="svg-icon" style="width: 1em; height: 1em;vertical-align: middle;fill: currentColor;overflow: hidden;" viewBox="0 0 1024 1024" version="1.1" xmlns="http://www.w3.org/2000/svg"><path d="M256 810.666667c-12.8 0-21.333333-4.266667-29.866667-12.8-17.066667-17.066667-17.066667-42.666667 0-59.733334l512-512c17.066667-17.066667 42.666667-17.066667 59.733334 0s17.066667 42.666667 0 59.733334l-512 512c-8.533333 8.533333-17.066667 12.8-29.866667 12.8z"  /><path d="M768 810.666667c-12.8 0-21.333333-4.266667-29.866667-12.8l-512-512c-17.066667-17.066667-17.066667-42.666667 0-59.733334s42.666667-17.066667 59.733334 0l512 512c17.066667 17.066667 17.066667 42.666667 0 59.733334-8.533333 8.533333-17.066667 12.8-29.866667 12.8z"  /></svg>