<svg viewBox="0 0 32 32" xmlns="http://www.w3.org/2000/svg" aria-hidden="true" style="display:block;height:24px;width:24px;fill:currentcolor"><path d="M4 25c.513 0 .942.503 1 1v2h22v-2c0-.513.5-1 1-1h3v2h-2v2c0 .513-.5 1-1 1H4c-.5 0-1-.5-1-1v-2H1v-2zm16-10c2.989 0 5.352 2.256 5.669 5.203l.182 2.592a3 3 0 0 1-2.788 3.198l-.102.005L9.142 26a3 3 0 0 1-3-3l.17-2.568C6.515 17.45 9.037 15.115 12 15zm-5 2h-2v3h-2v-2.831a3.833 3.833 0 0 0-2.673 3.19A21.494 21.494 0 0 0 8.142 23c0 .513.36.942.858 1h14c.512-.035.833-.452.857-.952a343.57 343.57 0 0 0-.163-2.48A3.832 3.832 0 0 0 21 17.17V20h-2v-3h-2v3h-2zm8.995-15.001 2 .002c-.002 2.06-.472 3.342-1.766 5.422l-.752 1.183c-1.061 1.702-1.44 2.683-1.474 4.157L22 13h-2c0-2.16.515-3.466 1.954-5.729l.562-.88c1.061-1.701 1.44-2.682 1.476-4.155zm-5 0 2 .002c-.002 2.06-.472 3.342-1.766 5.422l-.752 1.183c-1.061 1.702-1.44 2.683-1.474 4.157L17 13h-2c0-2.16.515-3.466 1.954-5.729l.562-.88c1.061-1.701 1.44-2.682 1.476-4.155zm-5 0 2 .002c-.002 2.06-.472 3.342-1.766 5.422l-.752 1.183c-1.061 1.702-1.44 2.683-1.474 4.157L12 13h-2c0-2.16.515-3.466 1.954-5.729l.562-.88c1.061-1.701 1.44-2.682 1.476-4.155z"/></svg>