<svg viewBox="0 0 32 32" xmlns="http://www.w3.org/2000/svg" aria-hidden="true" style="display:block;height:24px;width:24px;fill:currentcolor"><path d="M25 1a3 3 0 0 1 2.995 2.824L28 4v22a3 3 0 0 1-2.824 2.995L25 29v2h-2v-2H9v2H7v-2a3 3 0 0 1-2.995-2.824L4 26V4a3 3 0 0 1 2.824-2.995L7 1h18zm1 20H6v5a1 1 0 0 0 .883.993L7 27h18a1 1 0 0 0 .993-.883L26 26v-5zm-10 2a1 1 0 1 1 0 2 1 1 0 0 1 0-2zm9-20h-8v16h9V4a1 1 0 0 0-.883-.993L25 3zM15 3H7a1 1 0 0 0-.993.883L6 4v15h9V3zm-3 8a1 1 0 1 1 0 2 1 1 0 0 1 0-2zm8 0a1 1 0 1 1 0 2 1 1 0 0 1 0-2z"/></svg>