<svg viewBox="0 0 32 32" xmlns="http://www.w3.org/2000/svg" aria-hidden="true" style="display:block;height:24px;width:24px;fill:currentcolor"><path d="M28 2a2 2 0 0 1 1.995 1.85L30 4v24a2 2 0 0 1-1.85 1.995L28 30H4a2 2 0 0 1-1.995-1.85L2 28V4a2 2 0 0 1 1.85-1.995L4 2zm0 2H4v24h24zM16 7a9 9 0 1 1 0 18 9 9 0 0 1 0-18zm-5.841 7.5c-.342 0-.68.024-1.014.073a7 7 0 0 0 13.107 4.58 8.976 8.976 0 0 1-6.91-2.374l-.236-.23a6.966 6.966 0 0 0-4.947-2.049zM16 9a6.997 6.997 0 0 0-6.066 3.504l.225-.004c2.262 0 4.444.844 6.124 2.407l.237.229a6.979 6.979 0 0 0 4.948 2.05c.493 0 .98-.05 1.456-.151A7 7 0 0 0 16 9zM7 6a1 1 0 1 1 0 2 1 1 0 0 1 0-2z"/></svg>