<svg xmlns="http://www.w3.org/2000/svg" viewBox="0 0 32 32" aria-hidden="true" style="display:block;height:24px;width:24px;fill:currentcolor"><path d="m9.238 3-.203.408a20.366 20.366 0 0 0-1.69 5.01l-.007.032A9.001 9.001 0 0 1 10.16 8c2.262 0 4.444.844 6.124 2.407l.237.229a6.979 6.979 0 0 0 4.948 2.05 6.985 6.985 0 0 0 3.528-.951l-.002-.222c-.071-2.757-.746-5.456-2.03-8.105L22.762 3H9.238zm.92 7c-1.087 0-2.15.249-3.112.726C7.014 11.15 7 11.574 7 12a9 9 0 0 0 9 9c4.06 0 7.706-3.138 8.72-6.919a8.999 8.999 0 0 1-3.252.605 8.976 8.976 0 0 1-6.126-2.408l-.236-.228A6.967 6.967 0 0 0 10.159 10zm13.804-9 .284.523C26.079 4.913 27 8.41 27 12c0 5.4-4.528 10.398-10 10.95V29h6v2H9v-2h6v-6.045C9.394 22.45 5 17.738 5 12c0-3.591.92-7.087 2.754-10.477L8.038 1h15.924z"/></svg>