<svg viewBox="0 0 32 32" xmlns="http://www.w3.org/2000/svg" aria-hidden="true" style="display:block;height:24px;width:24px;fill:currentcolor"><path d="M2 30a1 1 0 0 1-1-1.03l.01-.111 3-21A1 1 0 0 1 5 7c2.213 0 4.089-.313 5.629-.928 1.495-.599 3.034-1.83 4.603-3.712a1 1 0 0 1 1.536 0c1.569 1.882 3.108 3.113 4.603 3.712C22.911 6.687 24.787 7 27 7a1 1 0 0 1 .968.747l.022.112 3 21a1 1 0 0 1-.878 1.135L30 30H2zM16 4.515l-.169.183c-1.462 1.545-2.946 2.625-4.46 3.23-1.425.57-3.058.911-4.9 1.027l-.507.026-.095.003L3.152 28H6v-4.333a3 3 0 0 1 .477-1.623l.123-.177L8.9 18.8a2 2 0 0 1 1.43-.793L10.5 18H12v-3a1 1 0 0 1 .883-.993L13 14h6a1 1 0 0 1 .993.883L20 15v3h1.5a2 2 0 0 1 1.492.668l.108.132 2.3 3.067a3 3 0 0 1 .592 1.584l.008.216V28h2.847L26.13 8.984l-.094-.003c-1.72-.069-3.267-.325-4.638-.774l-.77-.279c-1.405-.562-2.785-1.533-4.145-2.906l-.314-.324L16 4.515zM24 25H8v3h16v-3zm-2.5-5h-11l-2.25 3h15.5l-2.25-3zM18 16h-4v2h4v-2z"/></svg>