<svg viewBox="0 0 32 32" xmlns="http://www.w3.org/2000/svg" aria-hidden="true" style="display:block;height:24px;width:24px;fill:currentcolor"><path d="M28 2a2 2 0 0 1 1.995 1.85L30 4v24a2 2 0 0 1-1.85 1.995L28 30H4a2 2 0 0 1-1.995-1.85L2 28V4a2 2 0 0 1 1.85-1.995L4 2zm0 2H4v24h24zM16 7a9 9 0 1 1 0 18 9 9 0 0 1 0-18zm0 2a7 7 0 1 0 0 14 7 7 0 0 0 0-14zm-4.795 5.579a6.948 6.948 0 0 1 3.675 1.755l.462.444a8.968 8.968 0 0 0 4.614 2.28 5.017 5.017 0 0 1-2.01 1.55 10.978 10.978 0 0 1-4.255-2.644 4.962 4.962 0 0 0-2.656-1.388 5.001 5.001 0 0 1 .17-1.998zm3.08-3.277a10.96 10.96 0 0 1 3.649 2.419 4.974 4.974 0 0 0 2.995 1.436 4.99 4.99 0 0 1-.064 2.002 6.967 6.967 0 0 1-4.12-1.807l-.462-.445a8.955 8.955 0 0 0-4.07-2.17 5.002 5.002 0 0 1 2.072-1.435zM7 6a1 1 0 1 1 0 2 1 1 0 0 1 0-2z"/></svg>