<svg viewBox="0 0 32 32" xmlns="http://www.w3.org/2000/svg" aria-hidden="true" style="display:block;height:24px;width:24px;fill:currentcolor"><path d="M16 20.333a3.667 3.667 0 1 1 0 7.334 3.667 3.667 0 0 1 0-7.334zm0 2a1.667 1.667 0 1 0 0 3.334 1.667 1.667 0 0 0 0-3.334zM16 15a9 9 0 0 1 8.043 4.958L22.53 21.47a7.003 7.003 0 0 0-13.058 0l-1.514-1.513A9 9 0 0 1 16 15zm0-5.333c4.98 0 9.368 2.54 11.937 6.396L26.49 17.51c-2.175-3.507-6.06-5.843-10.49-5.843S7.685 14.003 5.51 17.51l-1.446-1.447A14.32 14.32 0 0 1 16 9.667zm0-5.334c6.451 0 12.177 3.106 15.763 7.904l-1.43 1.431C27.122 9.225 21.898 6.333 16 6.333c-5.9 0-11.123 2.892-14.332 7.334l-1.43-1.43C3.824 7.438 9.549 4.332 16 4.332z"/></svg>